<?xml version="1.0" encoding="UTF-8"?>
<svg version="1.1" xmlns="http://www.w3.org/2000/svg" width="32" height="32">
<path d="M0 0 C0.91523438 -0.01611328 1.83046875 -0.03222656 2.7734375 -0.04882812 C3.65257813 -0.04947266 4.53171875 -0.05011719 5.4375 -0.05078125 C6.24058594 -0.05376221 7.04367188 -0.05674316 7.87109375 -0.05981445 C10 0.3125 10 0.3125 11.7668457 1.46142578 C13.53666026 4.11807475 13.33937935 6.12157777 13.29296875 9.29296875 C13.28330078 10.45634766 13.27363281 11.61972656 13.26367188 12.81835938 C13.23853516 14.03330078 13.21339844 15.24824219 13.1875 16.5 C13.16719727 18.33981445 13.16719727 18.33981445 13.14648438 20.21679688 C13.11108741 23.24913664 13.0617076 26.28059996 13 29.3125 C12.43684082 28.66289307 11.87368164 28.01328613 11.29345703 27.34399414 C8.67016982 25.02034363 7.7291663 24.81648425 4.3046875 24.80859375 C3.42425781 24.78990234 2.54382812 24.77121094 1.63671875 24.75195312 C0.26966797 24.75098633 0.26966797 24.75098633 -1.125 24.75 C-2.94021726 24.7410894 -4.75542994 24.7195716 -6.5703125 24.68359375 C-7.37227051 24.68286865 -8.17422852 24.68214355 -9.00048828 24.68139648 C-9.66032715 24.55966064 -10.32016602 24.4379248 -11 24.3125 C-13.7889256 20.1291116 -13.33066174 16.66456709 -13.3125 11.75 C-13.32861328 10.87408203 -13.34472656 9.99816406 -13.36132812 9.09570312 C-13.36197266 8.25845703 -13.36261719 7.42121094 -13.36328125 6.55859375 C-13.36626221 5.79216553 -13.36924316 5.0257373 -13.37231445 4.23608398 C-13.24945068 3.60130127 -13.12658691 2.96651855 -13 2.3125 C-8.72800275 -0.53549817 -5.02201715 -0.01768316 0 0 Z " fill="#2692D0" transform="translate(16,0.6875)"/>
<path d="M0 0 C0.66 0 1.32 0 2 0 C2.33 3.63 2.66 7.26 3 11 C4.32 10.67 5.64 10.34 7 10 C7.33 6.7 7.66 3.4 8 0 C8.66 0 9.32 0 10 0 C10.33 3.3 10.66 6.6 11 10 C12.32 10.33 13.64 10.66 15 11 C15 7.37 15 3.74 15 0 C15.99 0 16.98 0 18 0 C18.05391993 1.79133978 18.09275571 3.58313899 18.125 5.375 C18.14820312 6.37273438 18.17140625 7.37046875 18.1953125 8.3984375 C18 11 18 11 16 13 C12.8125 13.265625 12.8125 13.265625 9 13.25 C7.741875 13.25515625 6.48375 13.2603125 5.1875 13.265625 C2 13 2 13 0 11 C-0.1953125 8.3984375 -0.1953125 8.3984375 -0.125 5.375 C-0.10695313 4.37210938 -0.08890625 3.36921875 -0.0703125 2.3359375 C-0.04710937 1.56507812 -0.02390625 0.79421875 0 0 Z " fill="#FBFCFE" transform="translate(7,7)"/>
<path d="M0 0 C0.99 0 1.98 0 3 0 C3.05391993 1.79133978 3.09275571 3.58313899 3.125 5.375 C3.14820313 6.37273438 3.17140625 7.37046875 3.1953125 8.3984375 C3 11 3 11 1 13 C-1.125 12.625 -1.125 12.625 -3 12 C-2.01 11.67 -1.02 11.34 0 11 C0 7.37 0 3.74 0 0 Z " fill="#E3EEF7" transform="translate(22,7)"/>
</svg>
